<?xml version="1.0" encoding="UTF-8"?>
<!DOCTYPE svg PUBLIC "-//W3C//DTD SVG 1.1//EN" "http://www.w3.org/Graphics/SVG/1.1/DTD/svg11.dtd">
<!-- Creator: CorelDRAW X6 -->
<svg xmlns="http://www.w3.org/2000/svg" xml:space="preserve" width="100%" height="100%" version="1.1" style="shape-rendering:geometricPrecision; text-rendering:geometricPrecision; image-rendering:optimizeQuality; fill-rule:evenodd; clip-rule:evenodd"
viewBox="0 0 500 500"
 xmlns:xlink="http://www.w3.org/1999/xlink">
 <defs>
  <style type="text/css">
   <![CDATA[
    .fil3 {fill:#008EED}
    .fil5 {fill:#303030}
    .fil4 {fill:#66A000}
    .fil2 {fill:#686868}
    .fil0 {fill:#B1B1B1}
    .fil1 {fill:#F2F2F2}
   ]]>
  </style>
 </defs>
 <g id="Layer_x0020_1">
  <metadata id="CorelCorpID_0Corel-Layer"/>
  <rect class="fil0" x="86" y="63" width="328" height="417" rx="15" ry="14"/>
  <path class="fil1" d="M312 464l-200 0c-5,0 -9,-4 -9,-9l0 -366c0,-5 4,-9 9,-9l276 0c5,0 9,4 9,9l0 290 -85 85z"/>
  <path class="fil2" d="M312 464l0 0 0 -76c0,-5 4,-9 9,-9l76 0 -85 85z"/>
  <path class="fil3" d="M354 112l-208 0c-1,0 -5,-2 -5,-5 -1,-3 1,-6 2,-8l25 -47c1,-1 1,-2 3,-2l48 0c2,0 7,-3 7,-8l0 -12c0,-5 4,-10 10,-10l28 0c6,0 10,5 10,10l0 12c0,5 5,8 7,8l46 0c2,0 4,1 5,2l25 47c1,2 3,5 2,8 0,3 -4,5 -5,5z"/>
  <polygon class="fil4" points="131,136 173,136 173,178 131,178 "/>
  <path class="fil5" d="M189 421l93 0 0 7 -93 0 0 -7zm0 -17l80 0 0 7 -80 0 0 -7zm0 -17l112 0 0 7 -112 0 0 -7z"/>
  <path class="fil5" d="M189 338l147 0 0 7 -147 0 0 -7zm0 -17l127 0 0 7 -127 0 0 -7zm0 -18l176 0 0 7 -176 0 0 -7z"/>
  <path class="fil5" d="M189 255l147 0 0 7 -147 0 0 -7zm0 -18l173 0 0 7 -173 0 0 -7zm0 -17l98 0 0 7 -98 0 0 -7z"/>
  <path class="fil5" d="M189 171l182 0 0 7 -182 0 0 -7zm0 -17l148 0 0 7 -148 0 0 -7zm0 -18l161 0 0 7 -161 0 0 -7z"/>
  <polygon class="fil5" points="148,160 163,146 167,150 148,169 137,157 141,153 "/>
  <polygon class="fil4" points="131,220 173,220 173,262 131,262 "/>
  <polygon class="fil5" points="148,244 163,229 167,234 148,252 137,241 141,236 "/>
  <polygon class="fil4" points="131,303 173,303 173,345 131,345 "/>
  <polygon class="fil5" points="148,327 163,313 167,317 148,336 137,324 141,320 "/>
  <polygon class="fil4" points="131,387 173,387 173,428 131,428 "/>
  <polygon class="fil5" points="148,410 163,396 167,400 148,419 137,408 141,403 "/>
 </g>
</svg>
