<?xml version="1.0" ?><svg xmlns="http://www.w3.org/2000/svg" xmlns:xlink="http://www.w3.org/1999/xlink" version="1.1" viewBox="0 0 32 32" style="enable-background:new 0 0 32 32;" xml:space="preserve"><style type="text/css">
	.st0{display:none;}
	.st1{display:inline;}
	.st2{fill:#CDF6F9;}
	.st3{fill:#FFFFFF;}
	.st4{fill:#1A83A8;}
</style><g id="Layer_1" class="st0"/><g id="Layer_2"/><g id="Layer_3"><path class="st2" d="M25.1,8.51V25.7c0,1.82-1.48,3.3-3.3,3.3H6.66c-1.82,0-3.3-1.48-3.3-3.3V8.51c0-1.82,1.48-3.3,3.3-3.3h3.01   L9.44,5.78c-0.31,0.78,0.27,1.63,1.11,1.63h7.37c0.84,0,1.42-0.85,1.11-1.63L18.8,5.21h3C23.62,5.21,25.1,6.69,25.1,8.51z"/><path class="st3" d="M17.92,7.41h-7.37c-0.84,0-1.42-0.85-1.11-1.63l0.23-0.57l0.58-1.46C10.43,3.3,10.87,3,11.36,3h5.75   c0.49,0,0.93,0.3,1.11,0.75l0.58,1.46l0.23,0.57C19.34,6.56,18.76,7.41,17.92,7.41z"/><circle class="st3" cx="24.136" cy="24.5" r="4.5"/><path class="st4" d="M16.934,28.1H6.664c-1.324,0-2.4-1.077-2.4-2.4V8.51c0-1.323,1.077-2.4,2.4-2.4h1.811   C8.452,6.559,8.56,7.011,8.82,7.395c0.39,0.575,1.038,0.919,1.733,0.919h7.366c0.695,0,1.343-0.343,1.733-0.919   c0.26-0.383,0.368-0.835,0.344-1.285h1.808c1.324,0,2.4,1.077,2.4,2.4v7.55c0,0.497,0.403,0.9,0.9,0.9s0.9-0.403,0.9-0.9V8.51   c0-2.316-1.884-4.2-4.2-4.2h-2.393l-0.356-0.891C18.736,2.618,17.973,2.1,17.11,2.1h-5.749c-0.862,0-1.625,0.517-1.944,1.318   L9.061,4.31H6.664c-2.316,0-4.2,1.884-4.2,4.2V25.7c0,2.316,1.884,4.2,4.2,4.2h10.27c0.497,0,0.9-0.403,0.9-0.9   S17.431,28.1,16.934,28.1z M10.28,6.111l0.809-2.026C11.134,3.973,11.241,3.9,11.361,3.9h5.749c0.121,0,0.228,0.072,0.272,0.186   l0.809,2.025c0.05,0.126,0.003,0.226-0.03,0.274c-0.033,0.048-0.108,0.129-0.243,0.129h-7.366c-0.135,0-0.21-0.081-0.243-0.129   C10.277,6.336,10.23,6.237,10.28,6.111z"/><path class="st4" d="M20.755,15.48c0-0.497-0.403-0.9-0.9-0.9h-6.721c-0.497,0-0.9,0.403-0.9,0.9s0.403,0.9,0.9,0.9h6.721   C20.353,16.38,20.755,15.977,20.755,15.48z"/><path class="st4" d="M9.527,14.58H8.616c-0.497,0-0.9,0.403-0.9,0.9s0.403,0.9,0.9,0.9h0.912c0.497,0,0.9-0.403,0.9-0.9   S10.024,14.58,9.527,14.58z"/><path class="st4" d="M13.134,20.04c-0.497,0-0.9,0.403-0.9,0.9s0.403,0.9,0.9,0.9h3.3c0.497,0,0.9-0.403,0.9-0.9   s-0.403-0.9-0.9-0.9H13.134z"/><path class="st4" d="M9.527,20.04H8.616c-0.497,0-0.9,0.403-0.9,0.9s0.403,0.9,0.9,0.9h0.912c0.497,0,0.9-0.403,0.9-0.9   S10.024,20.04,9.527,20.04z"/><path class="st4" d="M25.008,23.107l-1.352,1.089l-0.247-0.316c-0.307-0.391-0.872-0.459-1.264-0.153   c-0.391,0.307-0.46,0.873-0.153,1.264l0.81,1.034c0.148,0.189,0.367,0.312,0.606,0.339c0.034,0.004,0.068,0.006,0.103,0.006   c0.205,0,0.404-0.069,0.564-0.199l2.062-1.661c0.387-0.312,0.448-0.878,0.136-1.265C25.961,22.856,25.395,22.795,25.008,23.107z"/><path class="st4" d="M27.955,20.682c-2.105-2.105-5.531-2.105-7.637,0c-2.105,2.105-2.105,5.532,0,7.637   c1.053,1.053,2.436,1.579,3.818,1.579s2.766-0.526,3.818-1.579C30.06,26.213,30.06,22.787,27.955,20.682z M26.682,27.046   c-1.404,1.403-3.688,1.403-5.092,0c-1.403-1.404-1.403-3.688,0-5.092c0.702-0.702,1.624-1.053,2.546-1.053s1.844,0.351,2.545,1.053   C28.085,23.358,28.085,25.642,26.682,27.046z"/></g><g id="Layer_4"/><g id="Layer_5"/><g id="Layer_6"/><g id="Layer_7"/><g id="Layer_8"/><g id="Layer_9"/><g id="Layer_10"/><g id="Layer_11"/><g id="Layer_12"/><g id="Layer_13"/><g id="Layer_14"/><g id="Layer_15"/><g id="Layer_16"/><g id="Layer_17"/><g id="Layer_18"/><g id="Layer_19"/><g id="Layer_20"/><g id="Layer_21"/><g id="Layer_22"/><g id="Layer_23"/><g id="Layer_24"/><g id="Layer_25"/><g id="Layer_26"/></svg>